<mxfile host="app.diagrams.net" agent="Mozilla/5.0 (Windows NT 10.0; Win64; x64) AppleWebKit/537.36 (KHTML, like Gecko) Chrome/130.0.0.0 Safari/537.36" version="24.8.3">
  <diagram name="Page-1" id="c4acf3e9-155e-7222-9cf6-157b1a14988f">
    <mxGraphModel dx="875" dy="471" grid="1" gridSize="10" guides="1" tooltips="1" connect="1" arrows="1" fold="1" page="1" pageScale="1" pageWidth="1654" pageHeight="2336" background="none" math="0" shadow="0">
      <root>
        <mxCell id="0" />
        <mxCell id="1" parent="0" />
        <mxCell id="6vAFmmjROKYw4pwOnC_C-38" style="edgeStyle=none;curved=1;rounded=0;orthogonalLoop=1;jettySize=auto;html=1;exitX=0.5;exitY=1;exitDx=0;exitDy=0;exitPerimeter=0;entryX=0.5;entryY=0;entryDx=0;entryDy=0;fontSize=12;startSize=8;endSize=8;" parent="1" source="6vAFmmjROKYw4pwOnC_C-3" target="6vAFmmjROKYw4pwOnC_C-6" edge="1">
          <mxGeometry relative="1" as="geometry" />
        </mxCell>
        <mxCell id="6vAFmmjROKYw4pwOnC_C-3" value="" style="points=[[0.145,0.145,0],[0.5,0,0],[0.855,0.145,0],[1,0.5,0],[0.855,0.855,0],[0.5,1,0],[0.145,0.855,0],[0,0.5,0]];shape=mxgraph.bpmn.event;html=1;verticalLabelPosition=bottom;labelBackgroundColor=#ffffff;verticalAlign=top;align=center;perimeter=ellipsePerimeter;outlineConnect=0;aspect=fixed;outline=standard;symbol=general;fillColor=#000000;" parent="1" vertex="1">
          <mxGeometry x="395" y="70" width="50" height="50" as="geometry" />
        </mxCell>
        <mxCell id="6vAFmmjROKYw4pwOnC_C-35" style="edgeStyle=none;curved=1;rounded=0;orthogonalLoop=1;jettySize=auto;html=1;exitX=0.5;exitY=1;exitDx=0;exitDy=0;entryX=0.5;entryY=0;entryDx=0;entryDy=0;fontSize=12;startSize=8;endSize=8;" parent="1" source="6vAFmmjROKYw4pwOnC_C-6" target="6vAFmmjROKYw4pwOnC_C-7" edge="1">
          <mxGeometry relative="1" as="geometry" />
        </mxCell>
        <mxCell id="6vAFmmjROKYw4pwOnC_C-6" value="В наличии&lt;div&gt;exit/ отправка заявки на бронирование&lt;/div&gt;" style="rounded=1;whiteSpace=wrap;html=1;" parent="1" vertex="1">
          <mxGeometry x="350" y="160" width="140" height="60" as="geometry" />
        </mxCell>
        <mxCell id="6vAFmmjROKYw4pwOnC_C-36" style="edgeStyle=none;curved=1;rounded=0;orthogonalLoop=1;jettySize=auto;html=1;exitX=0.5;exitY=1;exitDx=0;exitDy=0;entryX=0.5;entryY=0;entryDx=0;entryDy=0;fontSize=12;startSize=8;endSize=8;" parent="1" source="6vAFmmjROKYw4pwOnC_C-7" target="6vAFmmjROKYw4pwOnC_C-8" edge="1">
          <mxGeometry relative="1" as="geometry" />
        </mxCell>
        <mxCell id="6vAFmmjROKYw4pwOnC_C-7" value="&lt;div&gt;Забронирована&lt;/div&gt;&lt;div&gt;exit/ отправлено уведомление о бронировании&lt;/div&gt;" style="rounded=1;whiteSpace=wrap;html=1;" parent="1" vertex="1">
          <mxGeometry x="320" y="280" width="200" height="60" as="geometry" />
        </mxCell>
        <mxCell id="6vAFmmjROKYw4pwOnC_C-37" style="edgeStyle=none;curved=1;rounded=0;orthogonalLoop=1;jettySize=auto;html=1;exitX=0.5;exitY=1;exitDx=0;exitDy=0;entryX=0.5;entryY=0;entryDx=0;entryDy=0;fontSize=12;startSize=8;endSize=8;" parent="1" source="6vAFmmjROKYw4pwOnC_C-8" target="6vAFmmjROKYw4pwOnC_C-9" edge="1">
          <mxGeometry relative="1" as="geometry" />
        </mxCell>
        <mxCell id="6vAFmmjROKYw4pwOnC_C-8" value="&lt;div&gt;В пользовании&amp;nbsp;&lt;/div&gt;&lt;div&gt;entry/ изменить статус в бд&lt;/div&gt;&lt;div&gt;exit/ уведомление об напоминании сроков для возврата книги&lt;/div&gt;" style="rounded=1;whiteSpace=wrap;html=1;" parent="1" vertex="1">
          <mxGeometry x="320" y="400" width="200" height="60" as="geometry" />
        </mxCell>
        <mxCell id="6vAFmmjROKYw4pwOnC_C-9" value="Возвращено&lt;div&gt;entry/ возврат книги пользователем&lt;/div&gt;&lt;div&gt;do/ изменить данные в бд о наличии&lt;/div&gt;&lt;div&gt;exit/ проверить состояние книги&lt;/div&gt;" style="rounded=1;whiteSpace=wrap;html=1;" parent="1" vertex="1">
          <mxGeometry x="295.29" y="590" width="250" height="60" as="geometry" />
        </mxCell>
        <mxCell id="6vAFmmjROKYw4pwOnC_C-10" value="Недоступна&lt;div&gt;entry/ книга оправлена на реставрацию&lt;/div&gt;&lt;div&gt;do/ реставрация книги&lt;/div&gt;&lt;div&gt;exit/ возврат книги в библиотеку&lt;/div&gt;" style="rounded=1;whiteSpace=wrap;html=1;" parent="1" vertex="1">
          <mxGeometry x="480" y="730" width="240" height="60" as="geometry" />
        </mxCell>
        <mxCell id="6vAFmmjROKYw4pwOnC_C-39" style="edgeStyle=none;curved=1;rounded=0;orthogonalLoop=1;jettySize=auto;html=1;exitX=0.5;exitY=1;exitDx=0;exitDy=0;fontSize=12;startSize=8;endSize=8;" parent="1" source="6vAFmmjROKYw4pwOnC_C-11" target="6vAFmmjROKYw4pwOnC_C-40" edge="1">
          <mxGeometry relative="1" as="geometry">
            <mxPoint x="419.7142857142858" y="980.0000000000002" as="targetPoint" />
          </mxGeometry>
        </mxCell>
        <mxCell id="6vAFmmjROKYw4pwOnC_C-11" value="&lt;div&gt;В наличии&lt;/div&gt;&lt;div&gt;do/ уведомить о доступности книги ожидающим пользователям&amp;nbsp;&lt;/div&gt;" style="rounded=1;whiteSpace=wrap;html=1;" parent="1" vertex="1">
          <mxGeometry x="300" y="880" width="240" height="60" as="geometry" />
        </mxCell>
        <mxCell id="6vAFmmjROKYw4pwOnC_C-15" style="edgeStyle=orthogonalEdgeStyle;rounded=0;orthogonalLoop=1;jettySize=auto;html=1;exitX=0.5;exitY=1;exitDx=0;exitDy=0;entryX=0.5;entryY=0;entryDx=0;entryDy=0;" parent="1" edge="1" target="6vAFmmjROKYw4pwOnC_C-11">
          <mxGeometry relative="1" as="geometry">
            <mxPoint x="419" y="870" as="targetPoint" />
            <mxPoint x="419.29" y="650" as="sourcePoint" />
            <Array as="points" />
          </mxGeometry>
        </mxCell>
        <mxCell id="6vAFmmjROKYw4pwOnC_C-16" style="edgeStyle=orthogonalEdgeStyle;rounded=0;orthogonalLoop=1;jettySize=auto;html=1;entryX=0.5;entryY=0;entryDx=0;entryDy=0;" parent="1" target="6vAFmmjROKYw4pwOnC_C-10" edge="1">
          <mxGeometry relative="1" as="geometry">
            <mxPoint x="730" y="700" as="targetPoint" />
            <mxPoint x="490" y="650" as="sourcePoint" />
            <Array as="points">
              <mxPoint x="490" y="653" />
              <mxPoint x="490" y="710" />
              <mxPoint x="600" y="710" />
            </Array>
          </mxGeometry>
        </mxCell>
        <mxCell id="6vAFmmjROKYw4pwOnC_C-18" value="&lt;font style=&quot;font-size: 12px;&quot;&gt;Книга в плохом состоянии&lt;/font&gt;" style="text;strokeColor=none;align=left;fillColor=none;html=1;verticalAlign=middle;whiteSpace=wrap;rounded=0;fontSize=12;" parent="1" vertex="1">
          <mxGeometry x="500" y="670" width="110" height="30" as="geometry" />
        </mxCell>
        <mxCell id="6vAFmmjROKYw4pwOnC_C-19" value="Книга в хоошем состоянии" style="text;strokeColor=none;align=right;fillColor=none;html=1;verticalAlign=middle;whiteSpace=wrap;rounded=0;fontSize=12;" parent="1" vertex="1">
          <mxGeometry x="295.29" y="670" width="115" height="30" as="geometry" />
        </mxCell>
        <mxCell id="6vAFmmjROKYw4pwOnC_C-63" style="edgeStyle=none;curved=1;rounded=0;orthogonalLoop=1;jettySize=auto;html=1;exitX=0.5;exitY=1;exitDx=0;exitDy=0;entryX=0.5;entryY=0;entryDx=0;entryDy=0;fontSize=12;startSize=8;endSize=8;" parent="1" source="6vAFmmjROKYw4pwOnC_C-22" target="6vAFmmjROKYw4pwOnC_C-62" edge="1">
          <mxGeometry relative="1" as="geometry" />
        </mxCell>
        <mxCell id="6vAFmmjROKYw4pwOnC_C-22" value="Не в наличии&amp;nbsp;&lt;div&gt;do/ поставить в приложении пометку об ожидании книги&lt;br&gt;&lt;div&gt;exit/ книга приходит по заказу&lt;/div&gt;&lt;/div&gt;" style="rounded=1;whiteSpace=wrap;html=1;" parent="1" vertex="1">
          <mxGeometry x="620" y="880" width="180" height="60" as="geometry" />
        </mxCell>
        <mxCell id="6vAFmmjROKYw4pwOnC_C-27" style="edgeStyle=orthogonalEdgeStyle;rounded=0;orthogonalLoop=1;jettySize=auto;html=1;entryX=0.5;entryY=0;entryDx=0;entryDy=0;exitX=0.5;exitY=1;exitDx=0;exitDy=0;" parent="1" target="6vAFmmjROKYw4pwOnC_C-22" edge="1">
          <mxGeometry relative="1" as="geometry">
            <mxPoint x="720" y="910" as="targetPoint" />
            <mxPoint x="600" y="810" as="sourcePoint" />
            <Array as="points">
              <mxPoint x="600" y="850" />
              <mxPoint x="710" y="850" />
            </Array>
          </mxGeometry>
        </mxCell>
        <mxCell id="6vAFmmjROKYw4pwOnC_C-30" style="edgeStyle=orthogonalEdgeStyle;rounded=0;orthogonalLoop=1;jettySize=auto;html=1;entryX=0.75;entryY=0;entryDx=0;entryDy=0;exitX=0.5;exitY=1;exitDx=0;exitDy=0;" parent="1" source="6vAFmmjROKYw4pwOnC_C-10" target="6vAFmmjROKYw4pwOnC_C-11" edge="1">
          <mxGeometry relative="1" as="geometry">
            <mxPoint x="720" y="880" as="targetPoint" />
            <mxPoint x="610" y="820" as="sourcePoint" />
            <Array as="points">
              <mxPoint x="600" y="850" />
              <mxPoint x="480" y="850" />
            </Array>
          </mxGeometry>
        </mxCell>
        <mxCell id="6vAFmmjROKYw4pwOnC_C-31" value="Не удалось восстановить" style="text;strokeColor=none;align=left;fillColor=none;html=1;verticalAlign=middle;whiteSpace=wrap;rounded=0;fontSize=12;" parent="1" vertex="1">
          <mxGeometry x="610" y="810" width="120" height="30" as="geometry" />
        </mxCell>
        <mxCell id="6vAFmmjROKYw4pwOnC_C-32" value="Книга восстановлена" style="text;strokeColor=none;align=right;fillColor=none;html=1;verticalAlign=middle;whiteSpace=wrap;rounded=0;fontSize=12;" parent="1" vertex="1">
          <mxGeometry x="480" y="810" width="110" height="30" as="geometry" />
        </mxCell>
        <mxCell id="6vAFmmjROKYw4pwOnC_C-34" style="edgeStyle=none;curved=1;rounded=0;orthogonalLoop=1;jettySize=auto;html=1;exitX=0.5;exitY=0;exitDx=0;exitDy=0;fontSize=12;startSize=8;endSize=8;" parent="1" source="6vAFmmjROKYw4pwOnC_C-18" target="6vAFmmjROKYw4pwOnC_C-18" edge="1">
          <mxGeometry relative="1" as="geometry" />
        </mxCell>
        <mxCell id="6vAFmmjROKYw4pwOnC_C-40" value="" style="ellipse;html=1;shape=endState;fillColor=#000000;strokeColor=#000000;" parent="1" vertex="1">
          <mxGeometry x="395" y="980" width="50.57" height="50" as="geometry" />
        </mxCell>
        <mxCell id="6vAFmmjROKYw4pwOnC_C-41" value="Утеряно&lt;div&gt;entry/ пользователь уведомил о потери книги&lt;span style=&quot;background-color: initial;&quot;&gt;&amp;nbsp;&lt;/span&gt;&lt;/div&gt;&lt;div&gt;&lt;span style=&quot;background-color: initial;&quot;&gt;do/ изменить наличие книги в БД&lt;/span&gt;&lt;/div&gt;&lt;div&gt;exit/ оформить заказ на потерянную книгу&lt;/div&gt;" style="rounded=1;whiteSpace=wrap;html=1;" parent="1" vertex="1">
          <mxGeometry x="520" y="480" width="260" height="60" as="geometry" />
        </mxCell>
        <mxCell id="6vAFmmjROKYw4pwOnC_C-43" value="&lt;div&gt;Просрочено&lt;/div&gt;&lt;div&gt;do/ уведомление с предупреждением о конце аренды&lt;/div&gt;&lt;div&gt;exit/ пользователь вернул книгу&lt;/div&gt;" style="rounded=1;whiteSpace=wrap;html=1;" parent="1" vertex="1">
          <mxGeometry x="150" y="480" width="200" height="60" as="geometry" />
        </mxCell>
        <mxCell id="6vAFmmjROKYw4pwOnC_C-46" style="edgeStyle=orthogonalEdgeStyle;rounded=0;orthogonalLoop=1;jettySize=auto;html=1;exitX=0;exitY=0.5;exitDx=0;exitDy=0;entryX=0.5;entryY=0;entryDx=0;entryDy=0;" parent="1" source="6vAFmmjROKYw4pwOnC_C-8" target="6vAFmmjROKYw4pwOnC_C-43" edge="1">
          <mxGeometry relative="1" as="geometry">
            <mxPoint x="610" y="740" as="targetPoint" />
            <mxPoint x="450" y="663" as="sourcePoint" />
            <Array as="points">
              <mxPoint x="250" y="430" />
            </Array>
          </mxGeometry>
        </mxCell>
        <mxCell id="6vAFmmjROKYw4pwOnC_C-49" value="Книгу не сдали в срок" style="text;strokeColor=none;align=center;fillColor=none;html=1;verticalAlign=middle;whiteSpace=wrap;rounded=0;fontSize=12;" parent="1" vertex="1">
          <mxGeometry x="185" y="400" width="130" height="30" as="geometry" />
        </mxCell>
        <mxCell id="6vAFmmjROKYw4pwOnC_C-50" style="edgeStyle=orthogonalEdgeStyle;rounded=0;orthogonalLoop=1;jettySize=auto;html=1;exitX=1;exitY=0.5;exitDx=0;exitDy=0;" parent="1" source="6vAFmmjROKYw4pwOnC_C-8" edge="1">
          <mxGeometry relative="1" as="geometry">
            <mxPoint x="580" y="480" as="targetPoint" />
            <mxPoint x="690" y="440" as="sourcePoint" />
            <Array as="points">
              <mxPoint x="580" y="430" />
            </Array>
          </mxGeometry>
        </mxCell>
        <mxCell id="6vAFmmjROKYw4pwOnC_C-51" value="Пользователь сообщил о потере книги&amp;nbsp;" style="text;strokeColor=none;align=left;fillColor=none;html=1;verticalAlign=middle;whiteSpace=wrap;rounded=0;fontSize=12;" parent="1" vertex="1">
          <mxGeometry x="530" y="390" width="140" height="30" as="geometry" />
        </mxCell>
        <mxCell id="6vAFmmjROKYw4pwOnC_C-55" style="edgeStyle=orthogonalEdgeStyle;rounded=0;orthogonalLoop=1;jettySize=auto;html=1;exitX=0.5;exitY=1;exitDx=0;exitDy=0;" parent="1" source="6vAFmmjROKYw4pwOnC_C-43" edge="1">
          <mxGeometry relative="1" as="geometry">
            <mxPoint x="330" y="590" as="targetPoint" />
            <mxPoint x="320" y="620" as="sourcePoint" />
            <Array as="points">
              <mxPoint x="250" y="560" />
              <mxPoint x="330" y="560" />
            </Array>
          </mxGeometry>
        </mxCell>
        <mxCell id="6vAFmmjROKYw4pwOnC_C-56" value="Книгу сдали в срок" style="text;strokeColor=none;align=left;fillColor=none;html=1;verticalAlign=middle;whiteSpace=wrap;rounded=0;fontSize=11;" parent="1" vertex="1">
          <mxGeometry x="425" y="495" width="55" height="30" as="geometry" />
        </mxCell>
        <mxCell id="6vAFmmjROKYw4pwOnC_C-61" style="edgeStyle=orthogonalEdgeStyle;rounded=0;orthogonalLoop=1;jettySize=auto;html=1;exitX=0.5;exitY=1;exitDx=0;exitDy=0;entryX=0.75;entryY=0;entryDx=0;entryDy=0;" parent="1" source="6vAFmmjROKYw4pwOnC_C-41" target="6vAFmmjROKYw4pwOnC_C-22" edge="1">
          <mxGeometry relative="1" as="geometry">
            <mxPoint x="710" y="620" as="targetPoint" />
            <mxPoint x="610" y="570" as="sourcePoint" />
            <Array as="points">
              <mxPoint x="580" y="570" />
              <mxPoint x="755" y="570" />
            </Array>
          </mxGeometry>
        </mxCell>
        <mxCell id="6vAFmmjROKYw4pwOnC_C-62" value="" style="shape=sumEllipse;perimeter=ellipsePerimeter;whiteSpace=wrap;html=1;backgroundOutline=1;" parent="1" vertex="1">
          <mxGeometry x="685" y="980" width="50" height="50" as="geometry" />
        </mxCell>
      </root>
    </mxGraphModel>
  </diagram>
</mxfile>
